<?xml version="1.0" encoding="UTF-8"?>
<svg xmlns="http://www.w3.org/2000/svg" viewBox="0 0 4096 4096">
  <defs>
    <style>
      .cls-1 {
        fill: #fff;
      }

      .cls-2 {
        stroke: #f04e23;
        stroke-linejoin: round;
        stroke-width: 80px;
      }

      .cls-2, .cls-3 {
        fill: #f04e23;
      }

      .cls-4 {
        fill: none;
      }
    </style>
  </defs>
  <g id="Background">
    <path class="cls-3" d="M2048,263c121.27,0,242.4,12.2,360,36.27,114.49,23.43,227.11,58.39,334.72,103.9,105.71,44.71,207.7,100.07,303.11,164.53,94.57,63.89,183.51,137.28,264.35,218.11,80.84,80.84,154.22,169.78,218.11,264.35,64.46,95.41,119.82,197.4,164.53,303.11,45.52,107.61,80.47,220.23,103.9,334.72,24.07,117.61,36.27,238.73,36.27,360s-12.2,242.4-36.27,360c-23.43,114.49-58.39,227.11-103.9,334.72-44.71,105.71-100.07,207.7-164.53,303.11-63.89,94.57-137.28,183.51-218.11,264.35-80.84,80.84-169.78,154.22-264.35,218.11-95.41,64.46-197.4,119.82-303.11,164.53-107.61,45.52-220.23,80.47-334.72,103.9-117.61,24.07-238.73,36.27-360,36.27s-242.4-12.2-360-36.27c-114.49-23.43-227.11-58.39-334.72-103.9-105.72-44.71-207.7-100.07-303.11-164.53-94.57-63.89-183.51-137.28-264.35-218.11-80.84-80.84-154.22-169.78-218.11-264.35-64.46-95.41-119.82-197.4-164.53-303.11-45.52-107.61-80.47-220.23-103.9-334.72-24.07-117.61-36.27-238.73-36.27-360s12.2-242.4,36.27-360c23.43-114.49,58.39-227.11,103.9-334.72,44.71-105.72,100.07-207.7,164.53-303.11,63.89-94.57,137.27-183.51,218.11-264.35,80.84-80.84,169.78-154.22,264.35-218.11,95.41-64.46,197.4-119.82,303.11-164.53,107.61-45.52,220.23-80.47,334.72-103.9,117.61-24.07,238.73-36.27,360-36.27m0-250C924.1,13,13,924.1,13,2048s911.1,2035,2035,2035,2035-911.1,2035-2035S3171.9,13,2048,13h0Z"/>
    <rect class="cls-4" width="4096" height="4096"/>
  </g>
  <g id="Logo">
    <g>
      <path class="cls-3" d="M2048.33,3582.34c-16.03,0-31.09-6.24-42.43-17.57L761.4,2320.26c-11.33-11.33-17.57-26.4-17.57-42.43s6.24-31.09,17.57-42.43L2005.91,990.9c11.33-11.33,26.4-17.57,42.43-17.57s31.09,6.24,42.43,17.57l1244.51,1244.51c23.39,23.39,23.39,61.46,0,84.85l-1244.51,1244.51c-11.33,11.33-26.4,17.57-42.43,17.57Z"/>
      <path class="cls-3" d="M2048.33,1013.32c5.12,0,10.24,1.95,14.14,5.86l1244.51,1244.51c7.81,7.81,7.81,20.47,0,28.28l-1244.51,1244.51c-3.91,3.91-9.02,5.86-14.14,5.86s-10.24-1.95-14.14-5.86L789.68,2291.97c-7.81-7.81-7.81-20.47,0-28.28L2034.19,1019.18c3.91-3.91,9.02-5.86,14.14-5.86m0-80c-26.71,0-51.82,10.4-70.71,29.29L733.11,2207.12c-18.89,18.89-29.29,44-29.29,70.71,0,26.71,10.4,51.82,29.29,70.71l1244.51,1244.51c18.89,18.89,44,29.29,70.71,29.29s51.82-10.4,70.71-29.29l1244.51-1244.51c38.99-38.99,38.99-102.43,0-141.42L2119.04,962.61c-18.88-18.89-44-29.29-70.71-29.29h0Z"/>
    </g>
    <g>
      <path class="cls-1" d="M2048.33,3395.48c-21.37,0-41.46-8.32-56.57-23.43L634.12,2014.4c-31.19-31.19-31.19-81.95,0-113.14L1991.76,543.62c15.11-15.11,35.2-23.43,56.57-23.43s41.46,8.32,56.57,23.43l1357.64,1357.64c15.11,15.11,23.43,35.2,23.43,56.57s-8.32,41.46-23.43,56.57l-1357.64,1357.65c-15.11,15.11-35.2,23.43-56.57,23.43Z"/>
      <path class="cls-3" d="M2048.33,560.19c10.24,0,20.47,3.91,28.28,11.72l1357.65,1357.65c15.62,15.62,15.62,40.95,0,56.57l-1357.65,1357.65c-7.81,7.81-18.05,11.72-28.28,11.72s-20.47-3.91-28.28-11.72L662.4,1986.12c-15.62-15.62-15.62-40.95,0-56.57L2020.05,571.9c7.81-7.81,18.05-11.72,28.28-11.72m0-80c-15.55,0-30.73,2.96-45.12,8.79-14.94,6.06-28.31,14.92-39.74,26.35L605.84,1872.98c-11.43,11.43-20.3,24.8-26.35,39.74-5.83,14.39-8.79,29.57-8.79,45.11s2.96,30.73,8.79,45.11c6.06,14.94,14.92,28.31,26.35,39.74l1357.65,1357.65c11.43,11.43,24.8,20.3,39.74,26.35,14.39,5.83,29.57,8.79,45.11,8.79s30.73-2.96,45.11-8.79c14.94-6.06,28.31-14.92,39.74-26.35l1357.65-1357.65c11.43-11.43,20.3-24.8,26.35-39.74,5.83-14.39,8.79-29.57,8.79-45.12s-2.96-30.73-8.79-45.12c-6.06-14.94-14.92-28.31-26.35-39.74L2133.19,515.33c-11.43-11.43-24.8-20.3-39.74-26.35-14.39-5.83-29.57-8.79-45.12-8.79h0Z"/>
    </g>
    <g>
      <polygon class="cls-2" points="1848.33 1957.83 1648.33 2157.83 1148.33 2157.83 1148.33 1757.83 1648.33 1757.83 1848.33 1957.83"/>
      <polygon class="cls-2" points="2248.33 1957.83 2448.33 1757.83 2948.33 1757.83 2948.33 2157.83 2448.33 2157.83 2248.33 1957.83"/>
      <g>
        <polygon class="cls-2" points="2048.33 2157.83 2248.33 2357.83 2248.33 2857.83 1848.33 2857.83 1848.33 2357.83 2048.33 2157.83"/>
        <polygon class="cls-2" points="2048.33 1757.83 1848.33 1557.83 1848.33 1057.83 2248.33 1057.83 2248.33 1557.83 2048.33 1757.83"/>
      </g>
    </g>
  </g>
</svg>